<mxfile host="app.diagrams.net" modified="2023-05-06T12:53:29.837Z" agent="Mozilla/5.0 (X11; Linux x86_64; rv:102.0) Gecko/20100101 Firefox/102.0" etag="ksiKL2iAA60bcuzG6TPA" version="21.2.9" type="device">
  <diagram name="Page-1" id="efa7a0a1-bf9b-a30e-e6df-94a7791c09e9">
    <mxGraphModel dx="1940" dy="1736" grid="1" gridSize="10" guides="1" tooltips="1" connect="1" arrows="1" fold="1" page="1" pageScale="1" pageWidth="826" pageHeight="1169" background="#ffffff" math="0" shadow="0">
      <root>
        <mxCell id="0" />
        <mxCell id="1" parent="0" />
        <mxCell id="25" value="&lt;p style=&quot;margin: 0px ; margin-top: 4px ; text-align: center ; text-decoration: underline&quot;&gt;&lt;strong&gt;accounts&lt;/strong&gt;&lt;/p&gt;&lt;hr&gt;&lt;p style=&quot;margin: 0px ; margin-left: 8px&quot;&gt;I &quot;id&quot;&lt;br&gt;I &quot;user_id&quot;, IDX [&quot;index_accounts_on_user_id&quot;] &lt;font color=&quot;#FF0080&quot;&gt;// NULL before confirmation&lt;/font&gt;&lt;br&gt;VC(40) &quot;login&quot;&amp;nbsp; null: false, collation: &quot;utf8mb4_bin&quot;, IDX [&quot;index_accounts_on_login&quot;]&lt;br&gt;VC(10) &quot;role&quot;&amp;nbsp; default: &quot;visitor&quot;, null: false, IDX [&quot;index_accounts_on_role&quot;] &lt;font color=&quot;#FF0080&quot;&gt;// admin, editor, inactive, maintainer, moderator, visitor&lt;/font&gt;&lt;br&gt;I &quot;karma&quot;, default: 20, null: false&lt;br&gt;I &quot;nb_votes&quot;, default: 0, null: false&lt;br&gt;VC(255) &quot;stylesheet&quot;&lt;br&gt;VC(128) &quot;email&quot;&amp;nbsp; null: false, IDX [&quot;index_accounts_on_email&quot;, unique: true]&lt;br&gt;VC(128) &quot;encrypted_password&quot;&amp;nbsp; default: &quot;&quot;, null: false&lt;br&gt;VC(64) &quot;confirmation_token&quot;, IDX [&quot;index_accounts_on_confirmation_token&quot;, unique: true]&lt;br&gt;DT &quot;confirmed_at&quot;&lt;br&gt;DT &quot;confirmation_sent_at&quot;&lt;br&gt;VC(64) &quot;reset_password_token&quot;, IDX [&quot;index_accounts_on_reset_password_token&quot;, unique: true]&lt;br&gt;DT &quot;remember_created_at&quot;&lt;br&gt;I &quot;sign_in_count&quot;, default: 0&lt;br&gt;DT &quot;current_sign_in_at&quot;&lt;br&gt;DT &quot;last_sign_in_at&quot;&lt;br&gt;VC(255) &quot;current_sign_in_ip&quot;&lt;br&gt;VC(255) &quot;last_sign_in_ip&quot;&lt;br&gt;DT &quot;created_at&quot;&lt;br&gt;DT &quot;updated_at&quot;&lt;br&gt;I &quot;preferences&quot;, default: 0, null: false&lt;br&gt;DT &quot;reset_password_sent_at&quot;&lt;br&gt;I &quot;min_karma&quot;, default: 20&lt;br&gt;I &quot;max_karma&quot;, default: 20&lt;br&gt;VC(255) &quot;uploaded_stylesheet&quot;&lt;/p&gt;&lt;p style=&quot;margin: 0px ; margin-left: 8px&quot;&gt;D &quot;last_seen_on&quot; &lt;font color=&quot;#FF0080&quot;&gt;// Mise Ã  jour automatique par ApplicationController&lt;/font&gt;&lt;/p&gt;&lt;p style=&quot;margin: 0px ; margin-left: 8px&quot;&gt;&lt;br&gt;&lt;/p&gt;" style="verticalAlign=top;align=left;overflow=fill;fontSize=12;fontFamily=Helvetica;html=1;strokeColor=#003366;shadow=1;fillColor=#D4E1F5;fontColor=#003366" parent="1" vertex="1">
          <mxGeometry x="-20" y="-550" width="700" height="437" as="geometry" />
        </mxCell>
        <mxCell id="90" value="" style="endArrow=open;endSize=12;startArrow=diamondThin;startSize=14;startFill=0;edgeStyle=orthogonalEdgeStyle;entryX=0.25;entryY=0;entryDx=0;entryDy=0;" parent="1" source="25" target="4iPdTcg1eZaAQi2mh2z5-147" edge="1">
          <mxGeometry x="620" y="340" as="geometry">
            <mxPoint x="130" y="-50" as="sourcePoint" />
            <mxPoint x="780" y="340" as="targetPoint" />
            <Array as="points">
              <mxPoint x="183" y="-70" />
              <mxPoint x="183" y="-70" />
            </Array>
          </mxGeometry>
        </mxCell>
        <mxCell id="91" value="0..1" style="resizable=0;align=left;verticalAlign=top;labelBackgroundColor=#ffffff;fontSize=10;strokeColor=#003366;shadow=1;fillColor=#D4E1F5;fontColor=#003366" parent="90" connectable="0" vertex="1">
          <mxGeometry x="-1" relative="1" as="geometry">
            <mxPoint x="10" as="offset" />
          </mxGeometry>
        </mxCell>
        <mxCell id="92" value="1" style="resizable=0;align=right;verticalAlign=top;labelBackgroundColor=#ffffff;fontSize=10;strokeColor=#003366;shadow=1;fillColor=#D4E1F5;fontColor=#003366" parent="90" connectable="0" vertex="1">
          <mxGeometry x="1" relative="1" as="geometry">
            <mxPoint x="20" y="-24.99999999999981" as="offset" />
          </mxGeometry>
        </mxCell>
        <mxCell id="ycPlvQS40vEQacDLWkNi-114" value="Text" style="text;html=1;strokeColor=none;fillColor=none;align=center;verticalAlign=middle;whiteSpace=wrap;rounded=0;" parent="1" vertex="1">
          <mxGeometry x="420" y="240" width="40" height="20" as="geometry" />
        </mxCell>
        <mxCell id="ycPlvQS40vEQacDLWkNi-115" value="Text" style="text;html=1;strokeColor=none;fillColor=none;align=center;verticalAlign=middle;whiteSpace=wrap;rounded=0;" parent="1" vertex="1">
          <mxGeometry x="420" y="240" width="40" height="20" as="geometry" />
        </mxCell>
        <mxCell id="ycPlvQS40vEQacDLWkNi-116" value="Text" style="text;html=1;strokeColor=none;fillColor=none;align=center;verticalAlign=middle;whiteSpace=wrap;rounded=0;" parent="1" vertex="1">
          <mxGeometry x="420" y="240" width="40" height="20" as="geometry" />
        </mxCell>
        <mxCell id="ycPlvQS40vEQacDLWkNi-117" value="&lt;div align=&quot;center&quot;&gt;Schema 2023/04/16 08:42:18&lt;/div&gt;&lt;div&gt;ENGINE=InnoDB DEFAULT CHARSET=utf8mb4 COLLATE=utf8mb4_unicode_ci&lt;br&gt;&lt;/div&gt;&lt;div&gt;(except the 3 oauth_ tables ENGINE=InnoDB DEFAULT CHARSET=utf8)&lt;br&gt;&lt;/div&gt;&lt;div&gt;&lt;br&gt;&lt;/div&gt;&lt;div&gt;B boolean&lt;br&gt;DT datetime&lt;/div&gt;&lt;div&gt;D date&lt;br&gt;&lt;/div&gt;&lt;div&gt;I integer(11)&lt;br&gt;IDX index&lt;br&gt;MT mediumtext (16777215)&lt;br&gt;LT longtext (4294967295)&lt;br&gt;T text (65535)&lt;br&gt;VC(x) varchar(x)&lt;/div&gt;&lt;div&gt;&lt;font color=&quot;#FF0080&quot;&gt;extra info&lt;/font&gt;&lt;br&gt;&lt;/div&gt;" style="text;html=1;align=center;verticalAlign=middle;resizable=0;points=[];autosize=1;" parent="1" vertex="1">
          <mxGeometry x="100" y="-795" width="460" height="220" as="geometry" />
        </mxCell>
        <mxCell id="4iPdTcg1eZaAQi2mh2z5-116" value="&lt;p style=&quot;margin: 0px ; margin-top: 4px ; text-align: center ; text-decoration: underline&quot;&gt;&lt;strong&gt;banners&lt;/strong&gt;&lt;/p&gt;&lt;hr&gt;I &quot;id&quot;&lt;br&gt;VC(255) &quot;title&quot;&lt;br&gt;MT &quot;content&quot;&lt;br&gt;B &quot;active&quot;, default: true&lt;br&gt;" style="verticalAlign=top;align=left;overflow=fill;fontSize=12;fontFamily=Helvetica;html=1;strokeColor=#003366;shadow=1;fillColor=#D4E1F5;fontColor=#003366" parent="1" vertex="1">
          <mxGeometry x="2189.5" y="-410" width="131" height="100" as="geometry" />
        </mxCell>
        <mxCell id="4iPdTcg1eZaAQi2mh2z5-117" value="&lt;p style=&quot;margin: 0px ; margin-top: 4px ; text-align: center ; text-decoration: underline&quot;&gt;&lt;strong&gt;bookmarks&lt;/strong&gt;&lt;/p&gt;&lt;hr&gt;I &quot;id&quot;&lt;br&gt;VC(160) &quot;title&quot;&amp;nbsp; null: false&lt;br&gt;VC(165) &quot;cached_slug&quot;&amp;nbsp; null: false, IDX [&quot;index_bookmarks_on_cached_slug&quot;]&lt;br&gt;I &quot;owner_id&quot;, IDX [&quot;index_bookmarks_on_owner_id&quot;]&lt;br&gt;VC(255) &quot;link&quot;, null: false&lt;br&gt;VC(2) &quot;lang&quot;&amp;nbsp; null: false&lt;br&gt;DT &quot;created_at&quot;&lt;br&gt;DT &quot;updated_at&quot;&lt;br&gt;&lt;br&gt;" style="verticalAlign=top;align=left;overflow=fill;fontSize=12;fontFamily=Helvetica;html=1;strokeColor=#003366;shadow=1;fillColor=#D4E1F5;fontColor=#003366;spacingLeft=0;" parent="1" vertex="1">
          <mxGeometry x="70" y="590" width="440" height="180" as="geometry" />
        </mxCell>
        <mxCell id="4iPdTcg1eZaAQi2mh2z5-118" value="&lt;p style=&quot;margin: 0px ; margin-top: 4px ; text-align: center ; text-decoration: underline&quot;&gt;&lt;strong&gt;categories&lt;/strong&gt;&lt;/p&gt;&lt;hr&gt;I &quot;id&quot;&lt;br&gt;VC(32) &quot;title&quot;&amp;nbsp; null: false&lt;br&gt;DT &quot;created_at&quot;&lt;br&gt;DT &quot;updated_at&quot;&lt;br&gt;" style="verticalAlign=top;align=left;overflow=fill;fontSize=12;fontFamily=Helvetica;html=1;strokeColor=#003366;shadow=1;fillColor=#D4E1F5;fontColor=#003366" parent="1" vertex="1">
          <mxGeometry x="2540.5000000000005" y="900.0000000000006" width="160" height="100" as="geometry" />
        </mxCell>
        <mxCell id="4iPdTcg1eZaAQi2mh2z5-119" value="&lt;p style=&quot;margin: 0px ; margin-top: 4px ; text-align: center ; text-decoration: underline&quot;&gt;&lt;strong&gt;comments&lt;/strong&gt;&lt;/p&gt;&lt;hr&gt;I &quot;id&quot;&lt;br&gt;I &quot;node_id&quot;, null: false, IDX [&quot;index_comments_on_node_id&quot;]&lt;br&gt;I &quot;user_id&quot;&lt;br&gt;VC(10) &quot;state&quot;&amp;nbsp; default: &quot;published&quot;, null: false &lt;font color=&quot;#FF0080&quot;&gt;// published, deleted&lt;/font&gt;&lt;br&gt;VC(160) &quot;title&quot;&amp;nbsp; null: false&lt;br&gt;I &quot;score&quot;, default: 0, null: false&lt;br&gt;B &quot;answered_to_self&quot;, default: false, null: false&lt;br&gt;VC(1022) &quot;materialized_path&quot; &lt;font color=&quot;#FF0080&quot;&gt;// concat(..., grandfather_id, father_id, id)&lt;/font&gt;&lt;br&gt;LT &quot;body&quot;&lt;br&gt;MT &quot;wiki_body&quot;&lt;br&gt;DT &quot;created_at&quot;&lt;br&gt;DT &quot;updated_at&quot;&lt;br&gt;IDX [&quot;state&quot;, &quot;created_at&quot;], name: &quot;index_comments_on_state_and_created_at&quot;&lt;br&gt;IDX [&quot;state&quot;, &quot;materialized_path&quot;], name: &quot;index_comments_on_state_and_materialized_path&quot;, length: { materialized_path: 120 }&lt;br&gt;IDX [&quot;user_id&quot;, &quot;answered_to_self&quot;], name: &quot;index_comments_on_user_id_and_answered_to_self&quot;&lt;br&gt;IDX [&quot;user_id&quot;, &quot;state&quot;, &quot;created_at&quot;], name: &quot;index_comments_on_user_id_and_state_and_created_at&quot;" style="verticalAlign=top;align=left;overflow=fill;fontSize=12;fontFamily=Helvetica;html=1;strokeColor=#003366;shadow=1;fillColor=#D4E1F5;fontColor=#003366" parent="1" vertex="1">
          <mxGeometry x="1270" y="180" width="710" height="270" as="geometry" />
        </mxCell>
        <mxCell id="4iPdTcg1eZaAQi2mh2z5-120" value="&lt;p style=&quot;margin: 0px ; margin-top: 4px ; text-align: center ; text-decoration: underline&quot;&gt;&lt;strong&gt;diaries&lt;/strong&gt;&lt;/p&gt;&lt;hr&gt;I &quot;id&quot;&lt;br&gt;VC(160) &quot;title&quot;&amp;nbsp; null: false&lt;br&gt;VC(165) &quot;cached_slug&quot;&amp;nbsp; null: false, IDX [&quot;index_diaries_on_cached_slug&quot;]&lt;br&gt;I &quot;owner_id&quot;, IDX [&quot;index_diaries_on_owner_id&quot; ]&lt;br&gt;LT &quot;body&quot;&lt;br&gt;MT &quot;wiki_body&quot;&lt;br&gt;MT &quot;truncated_body&quot;&lt;br&gt;DT &quot;created_at&quot;&lt;br&gt;DT &quot;updated_at&quot;&lt;br&gt;I &quot;converted_news_id&quot;, IDX [&quot;fk_diaries_on_converted_news_id&quot;]&lt;br&gt;&lt;br&gt;&lt;br&gt;" style="verticalAlign=top;align=left;overflow=fill;fontSize=12;fontFamily=Helvetica;html=1;strokeColor=#003366;shadow=1;fillColor=#D4E1F5;fontColor=#003366" parent="1" vertex="1">
          <mxGeometry x="530" y="590" width="410" height="190" as="geometry" />
        </mxCell>
        <mxCell id="4iPdTcg1eZaAQi2mh2z5-121" value="&lt;p style=&quot;margin: 0px ; margin-top: 4px ; text-align: center ; text-decoration: underline&quot;&gt;&lt;strong&gt;forums&lt;/strong&gt;&lt;/p&gt;&lt;hr&gt;I &quot;id&quot;&lt;br&gt;VC(10) &quot;state&quot;&amp;nbsp; default: &quot;active&quot;, null: false&lt;br&gt;VC(32) &quot;title&quot;&amp;nbsp; null: false&lt;br&gt;VC(32) &quot;cached_slug&quot;&amp;nbsp; null: false, IDX [&quot;index_forums_on_cached_slug&quot;]&lt;br&gt;I &quot;position&quot;&lt;br&gt;DT &quot;created_at&quot;&lt;br&gt;DT &quot;updated_at&quot;&lt;br&gt;" style="verticalAlign=top;align=left;overflow=fill;fontSize=12;fontFamily=Helvetica;html=1;strokeColor=#003366;shadow=1;fillColor=#D4E1F5;fontColor=#003366" parent="1" vertex="1">
          <mxGeometry x="1972.5" y="900" width="412.5" height="140" as="geometry" />
        </mxCell>
        <mxCell id="4iPdTcg1eZaAQi2mh2z5-122" value="&lt;p style=&quot;margin: 0px ; margin-top: 4px ; text-align: center ; text-decoration: underline&quot;&gt;&lt;strong&gt;friend_sites&lt;/strong&gt;&lt;/p&gt;&lt;hr&gt;I &quot;id&quot;&lt;br&gt;VC(255) &quot;title&quot;&lt;br&gt;VC(255) &quot;url&quot;&lt;br&gt;I &quot;position&quot;, IDX [&quot;index_friend_sites_on_position&quot;]" style="verticalAlign=top;align=left;overflow=fill;fontSize=12;fontFamily=Helvetica;html=1;strokeColor=#003366;shadow=1;fillColor=#D4E1F5;fontColor=#003366" parent="1" vertex="1">
          <mxGeometry x="2189.5" y="-270" width="281" height="100" as="geometry" />
        </mxCell>
        <mxCell id="4iPdTcg1eZaAQi2mh2z5-123" value="&lt;p style=&quot;margin: 0px ; margin-top: 4px ; text-align: center ; text-decoration: underline&quot;&gt;&lt;strong&gt;links (with hits count in news)&lt;br&gt;&lt;/strong&gt;&lt;/p&gt;&lt;hr&gt;I &quot;id&quot;&lt;br&gt;I &quot;news_id&quot;, null: false, IDX [&quot;index_links_on_news_id&quot;]&lt;br&gt;VC(100) &quot;title&quot;&amp;nbsp; null: false&lt;br&gt;VC(255) &quot;url&quot;, null: false&lt;br&gt;VC(2) &quot;lang&quot;&amp;nbsp; null: false&lt;br&gt;DT &quot;created_at&quot;&lt;br&gt;DT &quot;updated_at&quot;&lt;br&gt;" style="verticalAlign=top;align=left;overflow=fill;fontSize=12;fontFamily=Helvetica;html=1;strokeColor=#003366;shadow=1;fillColor=#D4E1F5;fontColor=#003366" parent="1" vertex="1">
          <mxGeometry x="670" y="1270" width="320" height="150" as="geometry" />
        </mxCell>
        <mxCell id="4iPdTcg1eZaAQi2mh2z5-160" style="edgeStyle=orthogonalEdgeStyle;rounded=0;orthogonalLoop=1;jettySize=auto;html=1;entryX=0.5;entryY=0;entryDx=0;entryDy=0;exitX=0;exitY=0.75;exitDx=0;exitDy=0;" parent="1" source="4iPdTcg1eZaAQi2mh2z5-124" target="4iPdTcg1eZaAQi2mh2z5-147" edge="1">
          <mxGeometry relative="1" as="geometry">
            <mxPoint x="825" y="-30" as="sourcePoint" />
            <mxPoint x="640" y="10" as="targetPoint" />
            <Array as="points">
              <mxPoint x="296" y="48" />
            </Array>
          </mxGeometry>
        </mxCell>
        <mxCell id="4iPdTcg1eZaAQi2mh2z5-161" value="fk_logs_on_user_id (acting user)" style="edgeLabel;html=1;align=center;verticalAlign=middle;resizable=0;points=[];" parent="4iPdTcg1eZaAQi2mh2z5-160" vertex="1" connectable="0">
          <mxGeometry x="0.0011" y="2" relative="1" as="geometry">
            <mxPoint x="20.71" y="-19.55" as="offset" />
          </mxGeometry>
        </mxCell>
        <mxCell id="4iPdTcg1eZaAQi2mh2z5-162" style="edgeStyle=orthogonalEdgeStyle;rounded=0;orthogonalLoop=1;jettySize=auto;html=1;entryX=0.5;entryY=1;entryDx=0;entryDy=0;exitX=0;exitY=0.25;exitDx=0;exitDy=0;" parent="1" source="4iPdTcg1eZaAQi2mh2z5-124" target="25" edge="1">
          <mxGeometry relative="1" as="geometry">
            <Array as="points">
              <mxPoint x="330" y="-17" />
            </Array>
          </mxGeometry>
        </mxCell>
        <mxCell id="4iPdTcg1eZaAQi2mh2z5-163" value="fk_logs_on_account_id (targeted account)" style="edgeLabel;html=1;align=center;verticalAlign=middle;resizable=0;points=[];" parent="4iPdTcg1eZaAQi2mh2z5-162" vertex="1" connectable="0">
          <mxGeometry x="-0.4667" y="-61" relative="1" as="geometry">
            <mxPoint x="-61.98" y="68.47" as="offset" />
          </mxGeometry>
        </mxCell>
        <mxCell id="4iPdTcg1eZaAQi2mh2z5-124" value="&lt;p style=&quot;margin: 0px ; margin-top: 4px ; text-align: center ; text-decoration: underline&quot;&gt;&lt;strong&gt;logs (user actions)&lt;br&gt;&lt;/strong&gt;&lt;/p&gt;&lt;hr&gt;I &quot;id&quot;&lt;br&gt;I &quot;account_id&quot;, null: false, IDX [&quot;index_logs_on_account_id&quot;]&lt;br&gt;VC(255) &quot;description&quot;&lt;br&gt;DT &quot;created_at&quot;&lt;br&gt;&lt;div&gt;I &quot;user_id&quot;, IDX [&quot;fk_logs_on_user_id&quot;]&lt;/div&gt;" style="verticalAlign=top;align=left;overflow=fill;fontSize=12;fontFamily=Helvetica;html=1;strokeColor=#003366;shadow=1;fillColor=#D4E1F5;fontColor=#003366" parent="1" vertex="1">
          <mxGeometry x="555" y="-50" width="330" height="130" as="geometry" />
        </mxCell>
        <mxCell id="4iPdTcg1eZaAQi2mh2z5-125" value="&lt;p style=&quot;margin: 0px ; margin-top: 4px ; text-align: center ; text-decoration: underline&quot;&gt;&lt;strong&gt;news&lt;/strong&gt;&lt;/p&gt;&lt;hr&gt;I &quot;id&quot;&lt;br&gt;VC(10) &quot;state&quot;&amp;nbsp; default: &quot;draft&quot;, null: false, IDX [&quot;index_news_on_state&quot;]&lt;br&gt;VC(160) &quot;title&quot;&amp;nbsp; null: false&lt;br&gt;VC(165) &quot;cached_slug&quot;&amp;nbsp; null: false, IDX [&quot;index_news_on_cached_slug&quot;]&lt;br&gt;I &quot;moderator_id&quot;, IDX [&quot;fk_news_on_moderator_id&quot;]&lt;br&gt;I &quot;section_id&quot;, null: false, IDX [&quot;index_news_on_section_id&quot;]&lt;br&gt;VC(32) &quot;author_name&quot;&amp;nbsp; null: false&lt;br&gt;VC(64) &quot;author_email&quot;&amp;nbsp; null: false&lt;br&gt;LT &quot;body&quot;&lt;br&gt;LT &quot;second_part&quot;&lt;br&gt;DT &quot;created_at&quot;&lt;br&gt;DT &quot;updated_at&quot;&lt;br&gt;DT &quot;submitted_at&quot;&lt;br&gt;&lt;br&gt;&lt;br&gt;&lt;br&gt;" style="verticalAlign=top;align=left;overflow=fill;fontSize=12;fontFamily=Helvetica;html=1;strokeColor=#003366;shadow=1;fillColor=#D4E1F5;fontColor=#003366" parent="1" vertex="1">
          <mxGeometry x="1050" y="590" width="415" height="230" as="geometry" />
        </mxCell>
        <mxCell id="4iPdTcg1eZaAQi2mh2z5-127" value="&lt;p style=&quot;margin: 0px ; margin-top: 4px ; text-align: center ; text-decoration: underline&quot;&gt;&lt;strong&gt;news_versions&lt;/strong&gt;&lt;/p&gt;&lt;hr&gt;I &quot;id&quot;&lt;br&gt;I &quot;news_id&quot;, null: false&lt;br&gt;I &quot;user_id&quot;&lt;br&gt;I &quot;version&quot;&lt;br&gt;VC(255) &quot;title&quot;&lt;br&gt;LT &quot;body&quot;&lt;br&gt;LT &quot;second_part&quot;&lt;br&gt;MT &quot;links&quot;&lt;br&gt;DT &quot;created_at&quot;&lt;br&gt;IDX [&quot;created_at&quot;], name: &quot;index_news_versions_on_created_at&quot;&lt;br&gt;IDX [&quot;news_id&quot;, &quot;user_id&quot;], name: &quot;index_news_versions_on_news_id_and_user_id&quot;&lt;br&gt;IDX [&quot;news_id&quot;, &quot;version&quot;], name: &quot;index_news_versions_on_news_id_and_version&quot;&lt;br&gt;IDX [&quot;user_id&quot;, &quot;created_at&quot;], name: &quot;index_news_versions_on_user_id_and_created_at&quot;&lt;br&gt;" style="verticalAlign=top;align=left;overflow=fill;fontSize=12;fontFamily=Helvetica;html=1;strokeColor=#003366;shadow=1;fillColor=#D4E1F5;fontColor=#003366" parent="1" vertex="1">
          <mxGeometry x="490" y="830" width="500" height="240" as="geometry" />
        </mxCell>
        <mxCell id="4iPdTcg1eZaAQi2mh2z5-128" value="&lt;p style=&quot;margin: 0px ; margin-top: 4px ; text-align: center ; text-decoration: underline&quot;&gt;&lt;strong&gt;nodes&lt;/strong&gt;&lt;/p&gt;&lt;hr&gt;I &quot;id&quot;&lt;br&gt;I &quot;content_id&quot;&lt;br&gt;VC(40) &quot;content_type&quot; &lt;font color=&quot;#FF0080&quot;&gt;// News, Diary, Poll, Post, WikiPage, Tracker, Bookmark&lt;/font&gt;&lt;br&gt;I &quot;user_id&quot;, IDX [&quot;index_nodes_on_user_id&quot;]&lt;br&gt;B &quot;public&quot;, default: true, null: false&lt;br&gt;B &quot;cc_licensed&quot;, default: true, null: false&lt;br&gt;I &quot;score&quot;, default: 0, null: false&lt;br&gt;I &quot;interest&quot;, default: 0, null: false&lt;br&gt;I &quot;comments_count&quot;, default: 0, null: false&lt;br&gt;DT &quot;last_commented_at&quot;&lt;br&gt;DT &quot;created_at&quot;&lt;br&gt;DT &quot;updated_at&quot;&lt;br&gt;IDX [&quot;content_id&quot;, &quot;content_type&quot;], name: &quot;index_nodes_on_content_id_and_content_type&quot;, unique: true&lt;br&gt;IDX [&quot;content_type&quot;, &quot;public&quot;, &quot;interest&quot;], name: &quot;index_nodes_on_content_type_and_public_and_interest&quot;&lt;br&gt;IDX [&quot;public&quot;, &quot;created_at&quot;], name: &quot;index_nodes_on_public_and_created_at&quot;&lt;br&gt;IDX [&quot;public&quot;, &quot;interest&quot;], name: &quot;index_nodes_on_public_and_interest&quot;&lt;br&gt;IDX [&quot;public&quot;, &quot;last_commented_at&quot;], name: &quot;index_nodes_on_public_and_last_commented_at&quot;&lt;br&gt;IDX [&quot;public&quot;, &quot;score&quot;], name: &quot;index_nodes_on_public_and_score&quot;" style="verticalAlign=top;align=left;overflow=fill;fontSize=12;fontFamily=Helvetica;html=1;strokeColor=#003366;shadow=1;fillColor=#D4E1F5;fontColor=#003366" parent="1" vertex="1">
          <mxGeometry x="670" y="180" width="580" height="300" as="geometry" />
        </mxCell>
        <mxCell id="4iPdTcg1eZaAQi2mh2z5-129" value="&lt;p style=&quot;margin: 0px ; margin-top: 4px ; text-align: center ; text-decoration: underline&quot;&gt;&lt;strong&gt;oauth_access_grants&lt;/strong&gt;&lt;/p&gt;&lt;hr&gt;I &quot;id&quot;&lt;br&gt;I &quot;resource_owner_id&quot;, null: false, IDX [&quot;fk_oauth_access_grants_on_resource_owner_id&quot;]&lt;br&gt;I &quot;application_id&quot;, null: false, IDX [&quot;fk_oauth_access_grants_on_application_id&quot;]&lt;br&gt;VC(255) &quot;token&quot;, null: false, IDX [&quot;index_oauth_access_grants_on_token&quot;, unique: true]&lt;br&gt;I &quot;expires_in&quot;, null: false&lt;br&gt;T &quot;redirect_uri&quot;, null: false&lt;br&gt;DT &quot;created_at&quot;, null: false&lt;br&gt;DT &quot;revoked_at&quot;&lt;br&gt;VC(255) &quot;scopes&quot;&lt;br&gt;&lt;br&gt;&lt;br&gt;" style="verticalAlign=top;align=left;overflow=fill;fontSize=12;fontFamily=Helvetica;html=1;strokeColor=#003366;shadow=1;fillColor=#D4E1F5;fontColor=#003366" parent="1" vertex="1">
          <mxGeometry x="1040" y="-430.82" width="510" height="171.64" as="geometry" />
        </mxCell>
        <mxCell id="4iPdTcg1eZaAQi2mh2z5-130" value="&lt;p style=&quot;margin: 0px ; margin-top: 4px ; text-align: center ; text-decoration: underline&quot;&gt;&lt;strong&gt;oauth_access_tokens&lt;/strong&gt;&lt;/p&gt;&lt;hr&gt;I &quot;id&quot;&lt;br&gt;I &quot;resource_owner_id&quot;, IDX [&quot;index_oauth_access_tokens_on_resource_owner_id&quot;]&lt;br&gt;I &quot;application_id&quot;, null: false, IDX [fk_oauth_access_tokens_on_application_id&quot;]&lt;br&gt;VC(255) &quot;token&quot;, null: false, IDX [&quot;index_oauth_access_tokens_on_token&quot;, unique: true]&lt;br&gt;VC(255) &quot;refresh_token&quot;, IDX [&quot;index_oauth_access_tokens_on_refresh_token&quot;, unique: true]&lt;br&gt;I &quot;expires_in&quot;&lt;br&gt;DT &quot;revoked_at&quot;&lt;br&gt;DT &quot;created_at&quot;, null: false&lt;br&gt;VC(255) &quot;scopes&quot;&lt;br&gt;&lt;br&gt;&lt;br&gt;&lt;br&gt;" style="verticalAlign=top;align=left;overflow=fill;fontSize=12;fontFamily=Helvetica;html=1;strokeColor=#003366;shadow=1;fillColor=#D4E1F5;fontColor=#003366" parent="1" vertex="1">
          <mxGeometry x="1040" y="-235" width="520" height="180" as="geometry" />
        </mxCell>
        <mxCell id="4iPdTcg1eZaAQi2mh2z5-131" value="&lt;p style=&quot;margin: 0px ; margin-top: 4px ; text-align: center ; text-decoration: underline&quot;&gt;&lt;strong&gt;oauth_applications&lt;/strong&gt;&lt;/p&gt;&lt;hr&gt;I &quot;id&quot;&lt;br&gt;VC(255) &quot;name&quot;, null: false&lt;br&gt;VC(255) &quot;uid&quot;, null: false, IDX [&quot;index_oauth_applications_on_uid&quot;, unique: true]&lt;br&gt;VC(255) &quot;secret&quot;, null: false&lt;br&gt;T &quot;redirect_uri&quot;, null: false&lt;br&gt;I &quot;owner_id&quot;, null: false&lt;br&gt;VC(255) &quot;owner_type&quot;&lt;br&gt;DT &quot;created_at&quot;&lt;br&gt;DT &quot;updated_at&quot;&lt;br&gt;VC(255) &quot;scopes&quot;, default: &quot;&quot;, null: false&lt;br&gt;IDX [&quot;owner_id&quot;, &quot;owner_type&quot;], name: &quot;index_oauth_applications_on_owner_id_and_owner_type&quot;" style="verticalAlign=top;align=left;overflow=fill;fontSize=12;fontFamily=Helvetica;html=1;strokeColor=#003366;shadow=1;fillColor=#D4E1F5;fontColor=#003366;spacingTop=0;" parent="1" vertex="1">
          <mxGeometry x="1040" y="-660" width="560" height="200" as="geometry" />
        </mxCell>
        <mxCell id="4iPdTcg1eZaAQi2mh2z5-132" value="&lt;p style=&quot;margin: 0px ; margin-top: 4px ; text-align: center ; text-decoration: underline&quot;&gt;&lt;strong&gt;pages (static webpages)&lt;br&gt;&lt;/strong&gt;&lt;/p&gt;&lt;hr&gt;I &quot;id&quot;&lt;br&gt;VC(128) &quot;slug&quot;, IDX [&quot;index_pages_on_slug&quot;]&lt;br&gt;VC(255) &quot;title&quot;&lt;br&gt;MT &quot;body&quot;&lt;br&gt;DT &quot;created_at&quot;&lt;br&gt;DT &quot;updated_at&quot;&lt;br&gt;" style="verticalAlign=top;align=left;overflow=fill;fontSize=12;fontFamily=Helvetica;html=1;strokeColor=#003366;shadow=1;fillColor=#D4E1F5;fontColor=#003366" parent="1" vertex="1">
          <mxGeometry x="1899.5" y="-410" width="260" height="130" as="geometry" />
        </mxCell>
        <mxCell id="4iPdTcg1eZaAQi2mh2z5-133" value="&lt;p style=&quot;margin: 0px ; margin-top: 4px ; text-align: center ; text-decoration: underline&quot;&gt;&lt;strong&gt;paragraphs (from news)&lt;br&gt;&lt;/strong&gt;&lt;/p&gt;&lt;hr&gt;I &quot;id&quot;&lt;br&gt;I &quot;news_id&quot;, null: false&lt;br&gt;I &quot;position&quot;&lt;br&gt;B &quot;second_part&quot;&lt;br&gt;MT &quot;body&quot;&lt;br&gt;MT &quot;wiki_body&quot;&lt;br&gt;IDX [&quot;news_id&quot;, &quot;second_part&quot;, &quot;position&quot;], name: &quot;index_paragraphs_on_news_id_and_more&quot;" style="verticalAlign=top;align=left;overflow=fill;fontSize=12;fontFamily=Helvetica;html=1;strokeColor=#003366;shadow=1;fillColor=#D4E1F5;fontColor=#003366" parent="1" vertex="1">
          <mxGeometry x="450" y="1100" width="540" height="140" as="geometry" />
        </mxCell>
        <mxCell id="4iPdTcg1eZaAQi2mh2z5-134" value="&lt;p style=&quot;margin: 0px ; margin-top: 4px ; text-align: center ; text-decoration: underline&quot;&gt;&lt;strong&gt;poll_answers&lt;/strong&gt;&lt;/p&gt;&lt;hr&gt;I &quot;id&quot;&lt;br&gt;I &quot;poll_id&quot;, null: false&lt;br&gt;VC(128) &quot;answer&quot;&amp;nbsp; null: false&lt;br&gt;I &quot;votes&quot;, default: 0, null: false&lt;br&gt;I &quot;position&quot;&lt;br&gt;DT &quot;created_at&quot;&lt;br&gt;DT &quot;updated_at&quot;&lt;br&gt;IDX [&quot;poll_id&quot;, &quot;position&quot;], name: &quot;index_poll_answers_on_poll_id_and_position&quot;&lt;br&gt;" style="verticalAlign=top;align=left;overflow=fill;fontSize=12;fontFamily=Helvetica;html=1;strokeColor=#003366;shadow=1;fillColor=#D4E1F5;fontColor=#003366" parent="1" vertex="1">
          <mxGeometry x="1510" y="900" width="440" height="154" as="geometry" />
        </mxCell>
        <mxCell id="4iPdTcg1eZaAQi2mh2z5-135" value="&lt;p style=&quot;margin: 0px ; margin-top: 4px ; text-align: center ; text-decoration: underline&quot;&gt;&lt;strong&gt;polls&lt;/strong&gt;&lt;/p&gt;&lt;hr&gt;I &quot;id&quot;&lt;br&gt;VC(10) &quot;state&quot;&amp;nbsp; default: &quot;draft&quot;, null: false, IDX [&quot;index_polls_on_state&quot;]&lt;br&gt;VC(128) &quot;title&quot;&amp;nbsp; null: false&lt;br&gt;VC(128) &quot;cached_slug&quot;&amp;nbsp; null: false, IDX [&quot;index_polls_on_cached_slug&quot;]&lt;br&gt;DT &quot;created_at&quot;&lt;br&gt;DT &quot;updated_at&quot;&lt;br&gt;MT &quot;wiki_explanations&quot;&lt;br&gt;MT &quot;explanations&quot;&lt;br&gt;&lt;br&gt;" style="verticalAlign=top;align=left;overflow=fill;fontSize=12;fontFamily=Helvetica;html=1;strokeColor=#003366;shadow=1;fillColor=#D4E1F5;fontColor=#003366" parent="1" vertex="1">
          <mxGeometry x="1527.5" y="590" width="405" height="180" as="geometry" />
        </mxCell>
        <mxCell id="4iPdTcg1eZaAQi2mh2z5-136" value="&lt;p style=&quot;margin: 0px ; margin-top: 4px ; text-align: center ; text-decoration: underline&quot;&gt;&lt;strong&gt;posts&lt;/strong&gt;&lt;/p&gt;&lt;hr&gt;I &quot;id&quot;&lt;br&gt;I &quot;forum_id&quot;, null: false, IDX [&quot;index_posts_on_forum_id&quot;]&lt;br&gt;VC(160) &quot;title&quot;&amp;nbsp; null: false&lt;br&gt;VC(165) &quot;cached_slug&quot;&amp;nbsp; null: false, IDX [&quot;index_posts_on_cached_slug&quot;]&lt;br&gt;LT &quot;body&quot;&lt;br&gt;MT &quot;wiki_body&quot;&lt;br&gt;MT &quot;truncated_body&quot;&lt;br&gt;DT &quot;created_at&quot;&lt;br&gt;DT &quot;updated_at&quot;&lt;br&gt;&lt;br&gt;" style="verticalAlign=top;align=left;overflow=fill;fontSize=12;fontFamily=Helvetica;html=1;strokeColor=#003366;shadow=1;fillColor=#D4E1F5;fontColor=#003366" parent="1" vertex="1">
          <mxGeometry x="1970" y="590" width="415" height="200" as="geometry" />
        </mxCell>
        <mxCell id="4iPdTcg1eZaAQi2mh2z5-137" value="&lt;p style=&quot;margin: 0px ; margin-top: 4px ; text-align: center ; text-decoration: underline&quot;&gt;&lt;strong&gt;responses (moderation email templates)&lt;br&gt;&lt;/strong&gt;&lt;/p&gt;&lt;hr&gt;I &quot;id&quot;&lt;br&gt;VC(255) &quot;title&quot;, null: false&lt;br&gt;MT &quot;content" style="verticalAlign=top;align=left;overflow=fill;fontSize=12;fontFamily=Helvetica;html=1;strokeColor=#003366;shadow=1;fillColor=#D4E1F5;fontColor=#003366" parent="1" vertex="1">
          <mxGeometry x="1899.5" y="-260" width="240" height="90" as="geometry" />
        </mxCell>
        <mxCell id="4iPdTcg1eZaAQi2mh2z5-138" value="&lt;p style=&quot;margin: 0px ; margin-top: 4px ; text-align: center ; text-decoration: underline&quot;&gt;&lt;strong&gt;taggings&lt;/strong&gt;&lt;/p&gt;&lt;hr&gt;I &quot;id&quot;&lt;br&gt;I &quot;tag_id&quot;, null: false, IDX [&quot;index_taggings_on_tag_id&quot;]&lt;br&gt;I &quot;node_id&quot;, null: false, IDX [&quot;index_taggings_on_node_id&quot;]&lt;br&gt;I &quot;user_id&quot;, IDX [&quot;index_taggings_on_user_id&quot;]&lt;br&gt;DT &quot;created_at&quot;&lt;br&gt;IDX [&quot;created_at&quot;, &quot;tag_id&quot;], name: &quot;index_taggings_on_created_at_and_tag_id&quot;&lt;br&gt;&lt;br&gt;&lt;br&gt;" style="verticalAlign=top;align=left;overflow=fill;fontSize=12;fontFamily=Helvetica;html=1;strokeColor=#003366;shadow=1;fillColor=#D4E1F5;fontColor=#003366" parent="1" vertex="1">
          <mxGeometry x="2010" y="180" width="440" height="130" as="geometry" />
        </mxCell>
        <mxCell id="4iPdTcg1eZaAQi2mh2z5-139" value="&lt;p style=&quot;margin: 0px ; margin-top: 4px ; text-align: center ; text-decoration: underline&quot;&gt;&lt;strong&gt;tags&lt;/strong&gt;&lt;/p&gt;&lt;hr&gt;I &quot;id&quot;&lt;br&gt;VC(64) &quot;name&quot;&amp;nbsp; null: false, IDX [&quot;index_tags_on_name&quot;, unique: true]&lt;br&gt;I &quot;taggings_count&quot;, default: 0, null: false&lt;br&gt;B &quot;public&quot;, default: true, null: false&lt;br&gt;IDX [&quot;public&quot;, &quot;taggings_count&quot;], name: &quot;index_tags_on_public_and_taggings_count&quot;" style="verticalAlign=top;align=left;overflow=fill;fontSize=12;fontFamily=Helvetica;html=1;strokeColor=#003366;shadow=1;fillColor=#D4E1F5;fontColor=#003366" parent="1" vertex="1">
          <mxGeometry x="1989.5" y="380" width="481" height="110" as="geometry" />
        </mxCell>
        <mxCell id="4iPdTcg1eZaAQi2mh2z5-140" value="&lt;p style=&quot;margin: 0px ; margin-top: 4px ; text-align: center ; text-decoration: underline&quot;&gt;&lt;strong&gt;trackers&lt;/strong&gt;&lt;/p&gt;&lt;hr&gt;I &quot;id&quot;&lt;br&gt;VC(10) &quot;state&quot;&amp;nbsp; default: &quot;opened&quot;, null: false, IDX [&quot;index_trackers_on_state&quot; ]&lt;br&gt;VC(100) &quot;title&quot;&amp;nbsp; null: false&lt;br&gt;VC(105) &quot;cached_slug&quot;&amp;nbsp; null: false, IDX [&quot;index_trackers_on_cached_slug&quot;]&lt;br&gt;I &quot;category_id&quot;, null: false, IDX [&quot;index_trackers_on_category_id&quot;]&lt;br&gt;I &quot;assigned_to_user_id&quot;, IDX [&quot;index_trackers_on_assigned_to_user_id&quot;]&lt;br&gt;LT &quot;body&quot;&lt;br&gt;MT &quot;wiki_body&quot;&lt;br&gt;MT &quot;truncated_body&quot;&lt;br&gt;DT &quot;created_at&quot;&lt;br&gt;DT &quot;updated_at&quot;&lt;br&gt;&lt;br&gt;&lt;br&gt;&lt;br&gt;" style="verticalAlign=top;align=left;overflow=fill;fontSize=12;fontFamily=Helvetica;html=1;strokeColor=#003366;shadow=1;fillColor=#D4E1F5;fontColor=#003366" parent="1" vertex="1">
          <mxGeometry x="2410" y="590" width="421" height="200" as="geometry" />
        </mxCell>
        <mxCell id="4iPdTcg1eZaAQi2mh2z5-142" value="&lt;p style=&quot;margin: 0px ; margin-top: 4px ; text-align: center ; text-decoration: underline&quot;&gt;&lt;strong&gt;wiki_pages&lt;/strong&gt;&lt;/p&gt;&lt;hr&gt;I &quot;id&quot;&lt;br&gt;VC(100) &quot;title&quot;&amp;nbsp; null: false&lt;br&gt;VC(105) &quot;cached_slug&quot;&amp;nbsp; null: false, &lt;br&gt;&lt;div&gt;IDX [&quot;index_wiki_pages_on_cached_slug&quot;]&lt;/div&gt;LT &quot;body&quot;&lt;br&gt;DT &quot;created_at&quot;&lt;br&gt;DT &quot;updated_at&quot;&lt;br&gt;T &quot;truncated_body&quot;&lt;br&gt;" style="verticalAlign=top;align=left;overflow=fill;fontSize=12;fontFamily=Helvetica;html=1;strokeColor=#003366;shadow=1;fillColor=#D4E1F5;fontColor=#003366" parent="1" vertex="1">
          <mxGeometry x="2895.5" y="590" width="250" height="170" as="geometry" />
        </mxCell>
        <mxCell id="4iPdTcg1eZaAQi2mh2z5-145" value="&lt;p style=&quot;margin: 0px ; margin-top: 4px ; text-align: center ; text-decoration: underline&quot;&gt;&lt;strong&gt;wiki_versions&lt;/strong&gt;&lt;/p&gt;&lt;hr&gt;I &quot;id&quot;&lt;br&gt;I &quot;wiki_page_id&quot;, null: false&lt;br&gt;I &quot;user_id&quot;, IDX [&quot;&lt;b&gt;fk_wiki_versions_on_user_id&lt;/b&gt;&quot;]&lt;br&gt;I &quot;version&quot;&lt;br&gt;VC(255) &quot;message&quot;&lt;br&gt;LT &quot;body&quot;&lt;br&gt;DT &quot;created_at&quot;&lt;br&gt;IDX [&quot;wiki_page_id&quot;, &quot;version&quot;], name: &quot;index_wiki_versions_on_wiki_page_id_and_version&quot;" style="verticalAlign=top;align=left;overflow=fill;fontSize=12;fontFamily=Helvetica;html=1;strokeColor=#003366;shadow=1;fillColor=#D4E1F5;fontColor=#003366" parent="1" vertex="1">
          <mxGeometry x="2760.5" y="900" width="520" height="160" as="geometry" />
        </mxCell>
        <mxCell id="4iPdTcg1eZaAQi2mh2z5-147" value="&lt;p style=&quot;margin: 0px ; margin-top: 4px ; text-align: center ; text-decoration: underline&quot;&gt;&lt;strong&gt;users&lt;/strong&gt;&lt;/p&gt;&lt;hr&gt;I &quot;id&quot;&lt;br&gt;VC(40) &quot;name&quot;&lt;br&gt;&lt;div&gt;VC(100) &quot;homesite&quot;&lt;/div&gt;&lt;div&gt;VC(100) &quot;mastodon_url&quot;&lt;/div&gt;VC(32) &quot;jabber_id&quot;&lt;br&gt;VC(32) &quot;cached_slug&quot;&amp;nbsp; null: false, IDX [&quot;index_users_on_cached_slug&quot;]&lt;br&gt;DT &quot;created_at&quot;&lt;br&gt;DT &quot;updated_at&quot;&lt;br&gt;VC(255) &quot;avatar&quot;&lt;br&gt;VC(255) &quot;signature&quot;&lt;br&gt;VC(255) &quot;custom_avatar_url&quot;" style="verticalAlign=top;align=left;overflow=fill;fontSize=12;fontFamily=Helvetica;html=1;strokeColor=#003366;shadow=1;fillColor=#D4E1F5;fontColor=#003366" parent="1" vertex="1">
          <mxGeometry x="70" y="180" width="452.5" height="210" as="geometry" />
        </mxCell>
        <mxCell id="4iPdTcg1eZaAQi2mh2z5-164" value="fk_accounts_on_user_id" style="text;html=1;strokeColor=none;fillColor=none;align=center;verticalAlign=middle;whiteSpace=wrap;rounded=0;" parent="1" vertex="1">
          <mxGeometry x="140" y="5" width="40" height="20" as="geometry" />
        </mxCell>
        <mxCell id="4iPdTcg1eZaAQi2mh2z5-167" style="edgeStyle=orthogonalEdgeStyle;rounded=0;orthogonalLoop=1;jettySize=auto;html=1;entryX=1;entryY=0.5;entryDx=0;entryDy=0;exitX=0;exitY=0.5;exitDx=0;exitDy=0;" parent="1" source="4iPdTcg1eZaAQi2mh2z5-128" target="4iPdTcg1eZaAQi2mh2z5-147" edge="1">
          <mxGeometry relative="1" as="geometry">
            <mxPoint x="847.5" y="70" as="sourcePoint" />
            <mxPoint x="387.82500000000005" y="182.0999999999999" as="targetPoint" />
            <Array as="points">
              <mxPoint x="570" y="335" />
              <mxPoint x="570" y="285" />
            </Array>
          </mxGeometry>
        </mxCell>
        <mxCell id="4iPdTcg1eZaAQi2mh2z5-168" value="fk_nodes_on_user_id" style="edgeLabel;html=1;align=center;verticalAlign=middle;resizable=0;points=[];" parent="4iPdTcg1eZaAQi2mh2z5-167" vertex="1" connectable="0">
          <mxGeometry x="0.0011" y="2" relative="1" as="geometry">
            <mxPoint x="26" y="13" as="offset" />
          </mxGeometry>
        </mxCell>
        <mxCell id="4iPdTcg1eZaAQi2mh2z5-170" style="edgeStyle=orthogonalEdgeStyle;rounded=0;orthogonalLoop=1;jettySize=auto;html=1;exitX=0.5;exitY=0;exitDx=0;exitDy=0;entryX=0.5;entryY=1;entryDx=0;entryDy=0;" parent="1" source="4iPdTcg1eZaAQi2mh2z5-145" target="4iPdTcg1eZaAQi2mh2z5-142" edge="1">
          <mxGeometry relative="1" as="geometry">
            <mxPoint x="1550.5" y="520" as="sourcePoint" />
            <mxPoint x="3160.5" y="820" as="targetPoint" />
            <Array as="points" />
          </mxGeometry>
        </mxCell>
        <mxCell id="4iPdTcg1eZaAQi2mh2z5-171" value="fk_wiki_versions_on_wiki_page_id" style="edgeLabel;html=1;align=center;verticalAlign=middle;resizable=0;points=[];" parent="4iPdTcg1eZaAQi2mh2z5-170" vertex="1" connectable="0">
          <mxGeometry x="0.0011" y="2" relative="1" as="geometry">
            <mxPoint x="-2" y="-10.000000000000002" as="offset" />
          </mxGeometry>
        </mxCell>
        <mxCell id="4iPdTcg1eZaAQi2mh2z5-178" style="edgeStyle=orthogonalEdgeStyle;rounded=0;orthogonalLoop=1;jettySize=auto;html=1;exitX=0.5;exitY=0;exitDx=0;exitDy=0;entryX=1;entryY=1;entryDx=0;entryDy=0;" parent="1" source="4iPdTcg1eZaAQi2mh2z5-142" target="4iPdTcg1eZaAQi2mh2z5-147" edge="1">
          <mxGeometry relative="1" as="geometry">
            <mxPoint x="3250" y="890" as="sourcePoint" />
            <mxPoint x="410" y="470" as="targetPoint" />
            <Array as="points">
              <mxPoint x="3021" y="510" />
              <mxPoint x="523" y="510" />
            </Array>
          </mxGeometry>
        </mxCell>
        <mxCell id="4iPdTcg1eZaAQi2mh2z5-179" value="fk_wiki_versions_on_user_id" style="edgeLabel;html=1;align=center;verticalAlign=middle;resizable=0;points=[];" parent="4iPdTcg1eZaAQi2mh2z5-178" vertex="1" connectable="0">
          <mxGeometry x="0.0011" y="2" relative="1" as="geometry">
            <mxPoint x="-2" y="-10.000000000000002" as="offset" />
          </mxGeometry>
        </mxCell>
        <mxCell id="4iPdTcg1eZaAQi2mh2z5-180" style="edgeStyle=orthogonalEdgeStyle;rounded=0;orthogonalLoop=1;jettySize=auto;html=1;exitX=0.5;exitY=0;exitDx=0;exitDy=0;entryX=0.75;entryY=1;entryDx=0;entryDy=0;" parent="1" source="4iPdTcg1eZaAQi2mh2z5-140" target="4iPdTcg1eZaAQi2mh2z5-147" edge="1">
          <mxGeometry relative="1" as="geometry">
            <mxPoint x="3250" y="580" as="sourcePoint" />
            <mxPoint x="492.5" y="390" as="targetPoint" />
            <Array as="points">
              <mxPoint x="2621" y="530" />
              <mxPoint x="409" y="530" />
            </Array>
          </mxGeometry>
        </mxCell>
        <mxCell id="4iPdTcg1eZaAQi2mh2z5-181" value="fk_trackers_on_assigned_to_user_id" style="edgeLabel;html=1;align=center;verticalAlign=middle;resizable=0;points=[];" parent="4iPdTcg1eZaAQi2mh2z5-180" vertex="1" connectable="0">
          <mxGeometry x="0.0011" y="2" relative="1" as="geometry">
            <mxPoint x="-2" y="-10.000000000000002" as="offset" />
          </mxGeometry>
        </mxCell>
        <mxCell id="4iPdTcg1eZaAQi2mh2z5-182" style="edgeStyle=orthogonalEdgeStyle;rounded=0;orthogonalLoop=1;jettySize=auto;html=1;exitX=0.5;exitY=1;exitDx=0;exitDy=0;entryX=0.5;entryY=0;entryDx=0;entryDy=0;" parent="1" source="4iPdTcg1eZaAQi2mh2z5-140" target="4iPdTcg1eZaAQi2mh2z5-118" edge="1">
          <mxGeometry relative="1" as="geometry">
            <mxPoint x="3020.5" y="900" as="sourcePoint" />
            <mxPoint x="3020.5" y="760" as="targetPoint" />
            <Array as="points" />
          </mxGeometry>
        </mxCell>
        <mxCell id="4iPdTcg1eZaAQi2mh2z5-183" value="fk_trackers_on_category_id" style="edgeLabel;html=1;align=center;verticalAlign=middle;resizable=0;points=[];" parent="4iPdTcg1eZaAQi2mh2z5-182" vertex="1" connectable="0">
          <mxGeometry x="0.0011" y="2" relative="1" as="geometry">
            <mxPoint x="-2" y="-10.000000000000002" as="offset" />
          </mxGeometry>
        </mxCell>
        <mxCell id="4iPdTcg1eZaAQi2mh2z5-184" style="edgeStyle=orthogonalEdgeStyle;rounded=0;orthogonalLoop=1;jettySize=auto;html=1;exitX=0.5;exitY=1;exitDx=0;exitDy=0;entryX=0.5;entryY=0;entryDx=0;entryDy=0;" parent="1" source="4iPdTcg1eZaAQi2mh2z5-136" target="4iPdTcg1eZaAQi2mh2z5-121" edge="1">
          <mxGeometry relative="1" as="geometry">
            <mxPoint x="2612.5" y="790" as="sourcePoint" />
            <mxPoint x="2612.5" y="900.0000000000005" as="targetPoint" />
            <Array as="points">
              <mxPoint x="2178.5" y="790" />
            </Array>
          </mxGeometry>
        </mxCell>
        <mxCell id="4iPdTcg1eZaAQi2mh2z5-185" value="fk_posts_on_forum_id" style="edgeLabel;html=1;align=center;verticalAlign=middle;resizable=0;points=[];" parent="4iPdTcg1eZaAQi2mh2z5-184" vertex="1" connectable="0">
          <mxGeometry x="0.0011" y="2" relative="1" as="geometry">
            <mxPoint x="-2" y="-10.000000000000002" as="offset" />
          </mxGeometry>
        </mxCell>
        <mxCell id="4iPdTcg1eZaAQi2mh2z5-186" style="edgeStyle=orthogonalEdgeStyle;rounded=0;orthogonalLoop=1;jettySize=auto;html=1;exitX=0.5;exitY=0;exitDx=0;exitDy=0;entryX=0.5;entryY=1;entryDx=0;entryDy=0;" parent="1" source="4iPdTcg1eZaAQi2mh2z5-134" target="4iPdTcg1eZaAQi2mh2z5-135" edge="1">
          <mxGeometry relative="1" as="geometry">
            <mxPoint x="2175" y="790" as="sourcePoint" />
            <mxPoint x="1830" y="810" as="targetPoint" />
            <Array as="points" />
          </mxGeometry>
        </mxCell>
        <mxCell id="4iPdTcg1eZaAQi2mh2z5-187" value="fk_poll_answers_on_poll_id" style="edgeLabel;html=1;align=center;verticalAlign=middle;resizable=0;points=[];" parent="4iPdTcg1eZaAQi2mh2z5-186" vertex="1" connectable="0">
          <mxGeometry x="0.0011" y="2" relative="1" as="geometry">
            <mxPoint x="-2" y="-10.000000000000002" as="offset" />
          </mxGeometry>
        </mxCell>
        <mxCell id="4iPdTcg1eZaAQi2mh2z5-188" style="edgeStyle=orthogonalEdgeStyle;rounded=0;orthogonalLoop=1;jettySize=auto;html=1;exitX=1;exitY=0.5;exitDx=0;exitDy=0;entryX=0.25;entryY=1;entryDx=0;entryDy=0;" parent="1" source="4iPdTcg1eZaAQi2mh2z5-127" target="4iPdTcg1eZaAQi2mh2z5-125" edge="1">
          <mxGeometry relative="1" as="geometry">
            <mxPoint x="1940" y="890" as="sourcePoint" />
            <mxPoint x="1940" y="760" as="targetPoint" />
            <Array as="points">
              <mxPoint x="1154" y="950" />
            </Array>
          </mxGeometry>
        </mxCell>
        <mxCell id="4iPdTcg1eZaAQi2mh2z5-189" value="fk_news_versions_on_news_id" style="edgeLabel;html=1;align=center;verticalAlign=middle;resizable=0;points=[];" parent="4iPdTcg1eZaAQi2mh2z5-188" vertex="1" connectable="0">
          <mxGeometry x="0.0011" y="2" relative="1" as="geometry">
            <mxPoint x="-2" y="-10.000000000000002" as="offset" />
          </mxGeometry>
        </mxCell>
        <mxCell id="4iPdTcg1eZaAQi2mh2z5-190" style="edgeStyle=orthogonalEdgeStyle;rounded=0;orthogonalLoop=1;jettySize=auto;html=1;entryX=0.5;entryY=1;entryDx=0;entryDy=0;exitX=0.5;exitY=0;exitDx=0;exitDy=0;" parent="1" source="4iPdTcg1eZaAQi2mh2z5-125" target="4iPdTcg1eZaAQi2mh2z5-147" edge="1">
          <mxGeometry relative="1" as="geometry">
            <mxPoint x="1940" y="560" as="sourcePoint" />
            <mxPoint x="393.75" y="390" as="targetPoint" />
            <Array as="points">
              <mxPoint x="1258" y="550" />
              <mxPoint x="296" y="550" />
            </Array>
          </mxGeometry>
        </mxCell>
        <mxCell id="4iPdTcg1eZaAQi2mh2z5-191" value="fk_news_on_moderator_id" style="edgeLabel;html=1;align=center;verticalAlign=middle;resizable=0;points=[];" parent="4iPdTcg1eZaAQi2mh2z5-190" vertex="1" connectable="0">
          <mxGeometry x="0.0011" y="2" relative="1" as="geometry">
            <mxPoint x="-2" y="-10.000000000000002" as="offset" />
          </mxGeometry>
        </mxCell>
        <mxCell id="4iPdTcg1eZaAQi2mh2z5-193" value="&lt;p style=&quot;margin: 0px ; margin-top: 4px ; text-align: center ; text-decoration: underline&quot;&gt;&lt;strong&gt;sections (for news)&lt;br&gt;&lt;/strong&gt;&lt;/p&gt;&lt;hr&gt;I &quot;id&quot;&lt;br&gt;VC(10) &quot;state&quot;&amp;nbsp; default: &quot;published&quot;, null: false&lt;br&gt;VC(32) &quot;title&quot;&amp;nbsp; null: false, IDX [&quot;index_sections_on_state_and_title&quot;]&lt;br&gt;VC(32) &quot;cached_slug&quot;&amp;nbsp; null: false, IDX [&quot;index_sections_on_cached_slug&quot;]&lt;br&gt;DT &quot;created_at&quot;&lt;br&gt;DT &quot;updated_at&quot;" style="verticalAlign=top;align=left;overflow=fill;fontSize=12;fontFamily=Helvetica;html=1;strokeColor=#003366;shadow=1;fillColor=#D4E1F5;fontColor=#003366" parent="1" vertex="1">
          <mxGeometry x="580" y="1450" width="410" height="140" as="geometry" />
        </mxCell>
        <mxCell id="4iPdTcg1eZaAQi2mh2z5-194" style="edgeStyle=orthogonalEdgeStyle;rounded=0;orthogonalLoop=1;jettySize=auto;html=1;exitX=1;exitY=0.5;exitDx=0;exitDy=0;entryX=1;entryY=0.5;entryDx=0;entryDy=0;" parent="1" source="4iPdTcg1eZaAQi2mh2z5-125" target="4iPdTcg1eZaAQi2mh2z5-193" edge="1">
          <mxGeometry relative="1" as="geometry">
            <mxPoint x="1450" y="890" as="sourcePoint" />
            <mxPoint x="1450" y="810" as="targetPoint" />
            <Array as="points" />
          </mxGeometry>
        </mxCell>
        <mxCell id="4iPdTcg1eZaAQi2mh2z5-195" value="fk_news_on_section_id" style="edgeLabel;html=1;align=center;verticalAlign=middle;resizable=0;points=[];" parent="4iPdTcg1eZaAQi2mh2z5-194" vertex="1" connectable="0">
          <mxGeometry x="0.0011" y="2" relative="1" as="geometry">
            <mxPoint x="-2" y="-10.000000000000002" as="offset" />
          </mxGeometry>
        </mxCell>
        <mxCell id="4iPdTcg1eZaAQi2mh2z5-196" style="edgeStyle=orthogonalEdgeStyle;rounded=0;orthogonalLoop=1;jettySize=auto;html=1;exitX=0;exitY=0.25;exitDx=0;exitDy=0;entryX=0;entryY=0.19;entryDx=0;entryDy=0;entryPerimeter=0;" parent="1" source="4iPdTcg1eZaAQi2mh2z5-127" target="4iPdTcg1eZaAQi2mh2z5-147" edge="1">
          <mxGeometry relative="1" as="geometry">
            <mxPoint x="1553.75" y="810" as="sourcePoint" />
            <mxPoint x="650" y="870" as="targetPoint" />
            <Array as="points">
              <mxPoint x="30" y="950" />
              <mxPoint x="30" y="220" />
            </Array>
          </mxGeometry>
        </mxCell>
        <mxCell id="4iPdTcg1eZaAQi2mh2z5-197" value="fk_news_versions_on_user_id" style="edgeLabel;html=1;align=center;verticalAlign=middle;resizable=0;points=[];" parent="4iPdTcg1eZaAQi2mh2z5-196" vertex="1" connectable="0">
          <mxGeometry x="0.0011" y="2" relative="1" as="geometry">
            <mxPoint x="-2" y="-10.000000000000002" as="offset" />
          </mxGeometry>
        </mxCell>
        <mxCell id="4iPdTcg1eZaAQi2mh2z5-198" style="edgeStyle=orthogonalEdgeStyle;rounded=0;orthogonalLoop=1;jettySize=auto;html=1;entryX=0.5;entryY=1;entryDx=0;entryDy=0;exitX=1;exitY=0.5;exitDx=0;exitDy=0;" parent="1" source="4iPdTcg1eZaAQi2mh2z5-133" target="4iPdTcg1eZaAQi2mh2z5-125" edge="1">
          <mxGeometry relative="1" as="geometry">
            <mxPoint x="1000" y="890" as="sourcePoint" />
            <mxPoint x="1450" y="810" as="targetPoint" />
            <Array as="points">
              <mxPoint x="1258" y="1170" />
            </Array>
          </mxGeometry>
        </mxCell>
        <mxCell id="4iPdTcg1eZaAQi2mh2z5-199" value="fk_paragraphs_on_news_id" style="edgeLabel;html=1;align=center;verticalAlign=middle;resizable=0;points=[];" parent="4iPdTcg1eZaAQi2mh2z5-198" vertex="1" connectable="0">
          <mxGeometry x="0.0011" y="2" relative="1" as="geometry">
            <mxPoint x="-2" y="-10.000000000000002" as="offset" />
          </mxGeometry>
        </mxCell>
        <mxCell id="4iPdTcg1eZaAQi2mh2z5-200" style="edgeStyle=orthogonalEdgeStyle;rounded=0;orthogonalLoop=1;jettySize=auto;html=1;entryX=0.25;entryY=1;entryDx=0;entryDy=0;exitX=0.5;exitY=0;exitDx=0;exitDy=0;" parent="1" source="4iPdTcg1eZaAQi2mh2z5-120" target="4iPdTcg1eZaAQi2mh2z5-147" edge="1">
          <mxGeometry relative="1" as="geometry">
            <mxPoint x="1450" y="580" as="sourcePoint" />
            <mxPoint x="295" y="390" as="targetPoint" />
            <Array as="points">
              <mxPoint x="735" y="570" />
              <mxPoint x="183" y="570" />
            </Array>
          </mxGeometry>
        </mxCell>
        <mxCell id="4iPdTcg1eZaAQi2mh2z5-201" value="fk_diaries_on_owner_id" style="edgeLabel;html=1;align=center;verticalAlign=middle;resizable=0;points=[];" parent="4iPdTcg1eZaAQi2mh2z5-200" vertex="1" connectable="0">
          <mxGeometry x="0.0011" y="2" relative="1" as="geometry">
            <mxPoint x="-2" y="-10.000000000000002" as="offset" />
          </mxGeometry>
        </mxCell>
        <mxCell id="4iPdTcg1eZaAQi2mh2z5-202" value="" style="endArrow=open;endSize=12;startArrow=diamondThin;startSize=14;startFill=0;edgeStyle=orthogonalEdgeStyle;exitX=0.5;exitY=1;exitDx=0;exitDy=0;entryX=0;entryY=0.5;entryDx=0;entryDy=0;" parent="1" source="4iPdTcg1eZaAQi2mh2z5-120" target="4iPdTcg1eZaAQi2mh2z5-125" edge="1">
          <mxGeometry x="620" y="340" as="geometry">
            <mxPoint x="1000" y="490" as="sourcePoint" />
            <mxPoint x="930" y="520" as="targetPoint" />
            <Array as="points">
              <mxPoint x="735" y="810" />
              <mxPoint x="970" y="810" />
              <mxPoint x="970" y="705" />
            </Array>
          </mxGeometry>
        </mxCell>
        <mxCell id="4iPdTcg1eZaAQi2mh2z5-203" value="0..1" style="resizable=0;align=left;verticalAlign=top;labelBackgroundColor=#ffffff;fontSize=10;strokeColor=#003366;shadow=1;fillColor=#D4E1F5;fontColor=#003366" parent="4iPdTcg1eZaAQi2mh2z5-202" connectable="0" vertex="1">
          <mxGeometry x="-1" relative="1" as="geometry">
            <mxPoint x="10" as="offset" />
          </mxGeometry>
        </mxCell>
        <mxCell id="4iPdTcg1eZaAQi2mh2z5-204" value="1" style="resizable=0;align=right;verticalAlign=top;labelBackgroundColor=#ffffff;fontSize=10;strokeColor=#003366;shadow=1;fillColor=#D4E1F5;fontColor=#003366" parent="4iPdTcg1eZaAQi2mh2z5-202" connectable="0" vertex="1">
          <mxGeometry x="1" relative="1" as="geometry">
            <mxPoint x="-23" y="-24.99999999999981" as="offset" />
          </mxGeometry>
        </mxCell>
        <mxCell id="4iPdTcg1eZaAQi2mh2z5-205" value="fk_diaries_on_converted_news_id" style="edgeLabel;html=1;align=center;verticalAlign=middle;resizable=0;points=[];" parent="1" vertex="1" connectable="0">
          <mxGeometry x="869.9970750629041" y="810.0005016156094" as="geometry">
            <mxPoint x="-2" y="-10.000000000000002" as="offset" />
          </mxGeometry>
        </mxCell>
        <mxCell id="4iPdTcg1eZaAQi2mh2z5-207" style="edgeStyle=orthogonalEdgeStyle;rounded=0;orthogonalLoop=1;jettySize=auto;html=1;entryX=0.75;entryY=1;entryDx=0;entryDy=0;exitX=1;exitY=0.5;exitDx=0;exitDy=0;" parent="1" source="4iPdTcg1eZaAQi2mh2z5-123" target="4iPdTcg1eZaAQi2mh2z5-125" edge="1">
          <mxGeometry relative="1" as="geometry">
            <mxPoint x="1250" y="1230" as="sourcePoint" />
            <mxPoint x="1450" y="810" as="targetPoint" />
            <Array as="points">
              <mxPoint x="1361" y="1345" />
            </Array>
          </mxGeometry>
        </mxCell>
        <mxCell id="4iPdTcg1eZaAQi2mh2z5-208" value="fk_links_on_news_id" style="edgeLabel;html=1;align=center;verticalAlign=middle;resizable=0;points=[];" parent="4iPdTcg1eZaAQi2mh2z5-207" vertex="1" connectable="0">
          <mxGeometry x="0.0011" y="2" relative="1" as="geometry">
            <mxPoint x="-2" y="-10.000000000000002" as="offset" />
          </mxGeometry>
        </mxCell>
        <mxCell id="4iPdTcg1eZaAQi2mh2z5-209" style="edgeStyle=orthogonalEdgeStyle;rounded=0;orthogonalLoop=1;jettySize=auto;html=1;entryX=0;entryY=0.75;entryDx=0;entryDy=0;" parent="1" target="4iPdTcg1eZaAQi2mh2z5-147" edge="1">
          <mxGeometry relative="1" as="geometry">
            <mxPoint x="70" y="680" as="sourcePoint" />
            <mxPoint x="295" y="390" as="targetPoint" />
            <Array as="points">
              <mxPoint x="70" y="680" />
              <mxPoint x="50" y="680" />
              <mxPoint x="50" y="338" />
            </Array>
          </mxGeometry>
        </mxCell>
        <mxCell id="4iPdTcg1eZaAQi2mh2z5-210" value="fk_bookmarks_on_owner_id" style="edgeLabel;html=1;align=center;verticalAlign=middle;resizable=0;points=[];" parent="4iPdTcg1eZaAQi2mh2z5-209" vertex="1" connectable="0">
          <mxGeometry x="0.0011" y="2" relative="1" as="geometry">
            <mxPoint x="82" y="71" as="offset" />
          </mxGeometry>
        </mxCell>
        <mxCell id="4iPdTcg1eZaAQi2mh2z5-211" value="fk_taggings_on_tag_id" style="edgeLabel;html=1;align=center;verticalAlign=middle;resizable=0;points=[];" parent="1" vertex="1" connectable="0">
          <mxGeometry x="1843" y="502" as="geometry">
            <mxPoint x="387" y="-162" as="offset" />
          </mxGeometry>
        </mxCell>
        <mxCell id="4iPdTcg1eZaAQi2mh2z5-212" style="edgeStyle=orthogonalEdgeStyle;rounded=0;orthogonalLoop=1;jettySize=auto;html=1;entryX=0.5;entryY=0;entryDx=0;entryDy=0;" parent="1" target="4iPdTcg1eZaAQi2mh2z5-139" edge="1">
          <mxGeometry relative="1" as="geometry">
            <mxPoint x="2230" y="310" as="sourcePoint" />
            <mxPoint x="1510" y="130" as="targetPoint" />
            <Array as="points">
              <mxPoint x="2230" y="330" />
              <mxPoint x="2230" y="330" />
            </Array>
          </mxGeometry>
        </mxCell>
        <mxCell id="4iPdTcg1eZaAQi2mh2z5-214" style="edgeStyle=orthogonalEdgeStyle;rounded=0;orthogonalLoop=1;jettySize=auto;html=1;exitX=0.25;exitY=0;exitDx=0;exitDy=0;entryX=0.25;entryY=0;entryDx=0;entryDy=0;" parent="1" source="4iPdTcg1eZaAQi2mh2z5-138" target="4iPdTcg1eZaAQi2mh2z5-128" edge="1">
          <mxGeometry relative="1" as="geometry">
            <mxPoint x="2230" y="170" as="sourcePoint" />
            <mxPoint x="1610" y="100" as="targetPoint" />
            <Array as="points">
              <mxPoint x="2120" y="120" />
              <mxPoint x="815" y="120" />
            </Array>
          </mxGeometry>
        </mxCell>
        <mxCell id="4iPdTcg1eZaAQi2mh2z5-217" style="edgeStyle=orthogonalEdgeStyle;rounded=0;orthogonalLoop=1;jettySize=auto;html=1;exitX=0.75;exitY=0;exitDx=0;exitDy=0;entryX=1;entryY=0;entryDx=0;entryDy=0;" parent="1" source="4iPdTcg1eZaAQi2mh2z5-138" target="4iPdTcg1eZaAQi2mh2z5-147" edge="1">
          <mxGeometry relative="1" as="geometry">
            <mxPoint x="2120" y="180" as="sourcePoint" />
            <mxPoint x="890" y="100" as="targetPoint" />
            <Array as="points">
              <mxPoint x="2340" y="100" />
              <mxPoint x="560" y="100" />
              <mxPoint x="560" y="180" />
            </Array>
          </mxGeometry>
        </mxCell>
        <mxCell id="4iPdTcg1eZaAQi2mh2z5-220" value="fk_taggings_on_user_id" style="text;whiteSpace=wrap;html=1;" parent="1" vertex="1">
          <mxGeometry x="1450" y="77" width="150" height="30" as="geometry" />
        </mxCell>
        <mxCell id="4iPdTcg1eZaAQi2mh2z5-221" style="edgeStyle=orthogonalEdgeStyle;rounded=0;orthogonalLoop=1;jettySize=auto;html=1;exitX=0.25;exitY=0;exitDx=0;exitDy=0;entryX=0.75;entryY=0;entryDx=0;entryDy=0;" parent="1" source="4iPdTcg1eZaAQi2mh2z5-119" target="4iPdTcg1eZaAQi2mh2z5-128" edge="1">
          <mxGeometry relative="1" as="geometry">
            <mxPoint x="2120" y="180" as="sourcePoint" />
            <mxPoint x="960" y="180" as="targetPoint" />
            <Array as="points">
              <mxPoint x="1448" y="160" />
              <mxPoint x="1105" y="160" />
            </Array>
          </mxGeometry>
        </mxCell>
        <mxCell id="4iPdTcg1eZaAQi2mh2z5-222" value="fk_taggings_on_node_id" style="text;whiteSpace=wrap;html=1;" parent="1" vertex="1">
          <mxGeometry x="1450" y="96" width="150" height="30" as="geometry" />
        </mxCell>
        <mxCell id="4iPdTcg1eZaAQi2mh2z5-224" value="fk_comments_on_node_id" style="text;whiteSpace=wrap;html=1;" parent="1" vertex="1">
          <mxGeometry x="1221" y="140" width="150" height="30" as="geometry" />
        </mxCell>
        <mxCell id="4iPdTcg1eZaAQi2mh2z5-225" style="edgeStyle=orthogonalEdgeStyle;rounded=0;orthogonalLoop=1;jettySize=auto;html=1;exitX=0.75;exitY=0;exitDx=0;exitDy=0;entryX=1.001;entryY=0.11;entryDx=0;entryDy=0;entryPerimeter=0;" parent="1" source="4iPdTcg1eZaAQi2mh2z5-119" target="4iPdTcg1eZaAQi2mh2z5-147" edge="1">
          <mxGeometry relative="1" as="geometry">
            <mxPoint x="2340" y="180" as="sourcePoint" />
            <mxPoint x="492.5" y="180" as="targetPoint" />
            <Array as="points">
              <mxPoint x="1803" y="140" />
              <mxPoint x="600" y="140" />
              <mxPoint x="600" y="203" />
            </Array>
          </mxGeometry>
        </mxCell>
        <mxCell id="4iPdTcg1eZaAQi2mh2z5-226" value="fk_comments_on_user_id" style="text;whiteSpace=wrap;html=1;" parent="1" vertex="1">
          <mxGeometry x="1220" y="115" width="150" height="30" as="geometry" />
        </mxCell>
        <mxCell id="4iPdTcg1eZaAQi2mh2z5-229" style="edgeStyle=orthogonalEdgeStyle;rounded=0;orthogonalLoop=1;jettySize=auto;html=1;exitX=0;exitY=0.5;exitDx=0;exitDy=0;entryX=1;entryY=0.25;entryDx=0;entryDy=0;" parent="1" source="4iPdTcg1eZaAQi2mh2z5-131" target="25" edge="1">
          <mxGeometry relative="1" as="geometry">
            <mxPoint x="665" y="-12.5" as="sourcePoint" />
            <mxPoint x="720" y="-470" as="targetPoint" />
            <Array as="points">
              <mxPoint x="1040" y="-555" />
              <mxPoint x="984" y="-555" />
              <mxPoint x="984" y="-428" />
            </Array>
          </mxGeometry>
        </mxCell>
        <mxCell id="4iPdTcg1eZaAQi2mh2z5-230" value="fk_oauth_applications_on_owner_id" style="edgeLabel;html=1;align=center;verticalAlign=middle;resizable=0;points=[];" parent="4iPdTcg1eZaAQi2mh2z5-229" vertex="1" connectable="0">
          <mxGeometry x="-0.4667" y="-61" relative="1" as="geometry">
            <mxPoint x="-63.06" y="22.35000000000001" as="offset" />
          </mxGeometry>
        </mxCell>
        <mxCell id="4iPdTcg1eZaAQi2mh2z5-231" style="edgeStyle=orthogonalEdgeStyle;rounded=0;orthogonalLoop=1;jettySize=auto;html=1;exitX=0;exitY=0.5;exitDx=0;exitDy=0;" parent="1" source="4iPdTcg1eZaAQi2mh2z5-129" target="25" edge="1">
          <mxGeometry relative="1" as="geometry">
            <mxPoint x="1039.9999999999995" y="-555" as="sourcePoint" />
            <mxPoint x="680" y="-345" as="targetPoint" />
            <Array as="points">
              <mxPoint x="1040" y="-350" />
            </Array>
          </mxGeometry>
        </mxCell>
        <mxCell id="4iPdTcg1eZaAQi2mh2z5-232" value="fk_oauth_access_grants_on_resource_owner_id" style="edgeLabel;html=1;align=center;verticalAlign=middle;resizable=0;points=[];" parent="4iPdTcg1eZaAQi2mh2z5-231" vertex="1" connectable="0">
          <mxGeometry x="-0.4667" y="-61" relative="1" as="geometry">
            <mxPoint x="-68.18" y="40.96000000000001" as="offset" />
          </mxGeometry>
        </mxCell>
        <mxCell id="4iPdTcg1eZaAQi2mh2z5-233" style="edgeStyle=orthogonalEdgeStyle;rounded=0;orthogonalLoop=1;jettySize=auto;html=1;exitX=0;exitY=0.5;exitDx=0;exitDy=0;entryX=1;entryY=0.75;entryDx=0;entryDy=0;" parent="1" source="4iPdTcg1eZaAQi2mh2z5-130" target="25" edge="1">
          <mxGeometry relative="1" as="geometry">
            <mxPoint x="960" y="-165" as="sourcePoint" />
            <mxPoint x="680" y="-240" as="targetPoint" />
            <Array as="points">
              <mxPoint x="890" y="-145" />
              <mxPoint x="890" y="-218" />
            </Array>
          </mxGeometry>
        </mxCell>
        <mxCell id="4iPdTcg1eZaAQi2mh2z5-234" value="fk_oauth_access_tokens_on_resource_owner_id" style="edgeLabel;html=1;align=center;verticalAlign=middle;resizable=0;points=[];" parent="4iPdTcg1eZaAQi2mh2z5-233" vertex="1" connectable="0">
          <mxGeometry x="-0.4667" y="-61" relative="1" as="geometry">
            <mxPoint x="-68.18" y="40.96000000000001" as="offset" />
          </mxGeometry>
        </mxCell>
        <mxCell id="4iPdTcg1eZaAQi2mh2z5-235" style="edgeStyle=orthogonalEdgeStyle;rounded=0;orthogonalLoop=1;jettySize=auto;html=1;exitX=1;exitY=0.5;exitDx=0;exitDy=0;entryX=1;entryY=0.75;entryDx=0;entryDy=0;" parent="1" source="4iPdTcg1eZaAQi2mh2z5-129" target="4iPdTcg1eZaAQi2mh2z5-131" edge="1">
          <mxGeometry relative="1" as="geometry">
            <mxPoint x="1039.9999999999995" y="-345" as="sourcePoint" />
            <mxPoint x="1620" y="-505" as="targetPoint" />
            <Array as="points">
              <mxPoint x="1800" y="-345" />
              <mxPoint x="1800" y="-510" />
            </Array>
          </mxGeometry>
        </mxCell>
        <mxCell id="4iPdTcg1eZaAQi2mh2z5-236" value="fk_oauth_access_grants_on_application_id" style="edgeLabel;html=1;align=center;verticalAlign=middle;resizable=0;points=[];" parent="4iPdTcg1eZaAQi2mh2z5-235" vertex="1" connectable="0">
          <mxGeometry x="-0.4667" y="-61" relative="1" as="geometry">
            <mxPoint x="-44.690000000000005" y="-71.03999999999999" as="offset" />
          </mxGeometry>
        </mxCell>
        <mxCell id="4iPdTcg1eZaAQi2mh2z5-237" style="edgeStyle=orthogonalEdgeStyle;rounded=0;orthogonalLoop=1;jettySize=auto;html=1;exitX=1;exitY=0.5;exitDx=0;exitDy=0;" parent="1" source="4iPdTcg1eZaAQi2mh2z5-130" edge="1">
          <mxGeometry relative="1" as="geometry">
            <mxPoint x="1549.9999999999995" y="-345" as="sourcePoint" />
            <mxPoint x="1600" y="-605" as="targetPoint" />
            <Array as="points">
              <mxPoint x="1860" y="-145" />
              <mxPoint x="1860" y="-605" />
            </Array>
          </mxGeometry>
        </mxCell>
        <mxCell id="4iPdTcg1eZaAQi2mh2z5-238" value="fk_oauth_access_tokens_on_application_id" style="edgeLabel;html=1;align=center;verticalAlign=middle;resizable=0;points=[];" parent="4iPdTcg1eZaAQi2mh2z5-237" vertex="1" connectable="0">
          <mxGeometry x="-0.4667" y="-61" relative="1" as="geometry">
            <mxPoint x="-111.75" y="-71.04999999999998" as="offset" />
          </mxGeometry>
        </mxCell>
        <mxCell id="4iPdTcg1eZaAQi2mh2z5-240" value="&lt;p style=&quot;margin: 0px ; margin-top: 4px ; text-align: center ; text-decoration: underline&quot;&gt;&lt;strong&gt;friendly_id_slugs&lt;/strong&gt;&lt;/p&gt;&lt;hr&gt;I &quot;id&quot;&lt;br&gt;VC(190) &quot;slug&quot;&lt;br&gt;I &quot;sluggable_id&quot;, IDX [&quot;index_slugs_on_sluggable_id&quot;]&lt;br&gt;VC(40) &quot;sluggable_type&quot;, IDX [&quot;index_friendly_id_slugs_on_sluggable_type&quot;] &lt;font color=&quot;#FF0080&quot;&gt;// News, Diary, Poll, Post, WikiPage, Tracker, Section, User, Forum, Bookmark&lt;/font&gt;&lt;br&gt;DT &quot;created_at&quot;&lt;br&gt;IDX [&quot;slug&quot;, &quot;sluggable_type&quot;], name: &quot;index_friendly_id_slugs_on_slug_and_sluggable_type&quot;" style="verticalAlign=top;align=left;overflow=fill;fontSize=12;fontFamily=Helvetica;html=1;strokeColor=#003366;shadow=1;fillColor=#D4E1F5;fontColor=#003366" parent="1" vertex="1">
          <mxGeometry x="1899.5" y="-150" width="850.5" height="140" as="geometry" />
        </mxCell>
      </root>
    </mxGraphModel>
  </diagram>
</mxfile>
